<svg width="25" height="24" viewBox="0 0 25 24" fill="none" xmlns="http://www.w3.org/2000/svg">
<path d="M12.333 2C15.05 2 15.389 2.01 16.455 2.06C17.52 2.11 18.245 2.277 18.883 2.525C19.543 2.779 20.099 3.123 20.655 3.678C21.1635 4.1779 21.557 4.78259 21.808 5.45C22.055 6.087 22.223 6.813 22.273 7.878C22.32 8.944 22.333 9.283 22.333 12C22.333 14.717 22.323 15.056 22.273 16.122C22.223 17.187 22.055 17.912 21.808 18.55C21.5577 19.2178 21.1641 19.8226 20.655 20.322C20.155 20.8303 19.5503 21.2238 18.883 21.475C18.246 21.722 17.52 21.89 16.455 21.94C15.389 21.987 15.05 22 12.333 22C9.61601 22 9.27701 21.99 8.21101 21.94C7.14601 21.89 6.42101 21.722 5.78301 21.475C5.11533 21.2245 4.51054 20.8309 4.01101 20.322C3.50241 19.8222 3.10894 19.2175 2.85801 18.55C2.61001 17.913 2.44301 17.187 2.39301 16.122C2.34601 15.056 2.33301 14.717 2.33301 12C2.33301 9.283 2.34301 8.944 2.39301 7.878C2.44301 6.812 2.61001 6.088 2.85801 5.45C3.10824 4.78218 3.50181 4.17732 4.01101 3.678C4.51068 3.16923 5.11544 2.77573 5.78301 2.525C6.42101 2.277 7.14501 2.11 8.21101 2.06C9.27701 2.013 9.61601 2 12.333 2ZM12.333 7C11.0069 7 9.73516 7.52678 8.79747 8.46447C7.85979 9.40215 7.33301 10.6739 7.33301 12C7.33301 13.3261 7.85979 14.5979 8.79747 15.5355C9.73516 16.4732 11.0069 17 12.333 17C13.6591 17 14.9309 16.4732 15.8685 15.5355C16.8062 14.5979 17.333 13.3261 17.333 12C17.333 10.6739 16.8062 9.40215 15.8685 8.46447C14.9309 7.52678 13.6591 7 12.333 7ZM18.833 6.75C18.833 6.41848 18.7013 6.10054 18.4669 5.86612C18.2325 5.6317 17.9145 5.5 17.583 5.5C17.2515 5.5 16.9335 5.6317 16.6991 5.86612C16.4647 6.10054 16.333 6.41848 16.333 6.75C16.333 7.08152 16.4647 7.39946 16.6991 7.63388C16.9335 7.8683 17.2515 8 17.583 8C17.9145 8 18.2325 7.8683 18.4669 7.63388C18.7013 7.39946 18.833 7.08152 18.833 6.75ZM12.333 9C13.1287 9 13.8917 9.31607 14.4543 9.87868C15.0169 10.4413 15.333 11.2044 15.333 12C15.333 12.7956 15.0169 13.5587 14.4543 14.1213C13.8917 14.6839 13.1287 15 12.333 15C11.5374 15 10.7743 14.6839 10.2117 14.1213C9.64908 13.5587 9.33301 12.7956 9.33301 12C9.33301 11.2044 9.64908 10.4413 10.2117 9.87868C10.7743 9.31607 11.5374 9 12.333 9Z" fill="white"/>
</svg>
